<svg height="512pt" viewBox="0 0 512 512" width="512pt" xmlns="http://www.w3.org/2000/svg"><path d="m29.617188 260.320312c-1.433594 16.90625-6.734376 33.382813-15.480469 47.960938l-13.640625 22.71875h44.503906c17.34375 0 35.058594-6.035156 48.328125-16.832031 18.273437 8.964843 38.140625 14.265625 58.472656 16.019531 1.691407-20.914062 7.1875-40.652344 14.96875-59.1875h-15.769531v-30h31.890625c32.011719-49.609375 85.292969-84.210938 147.390625-89.203125-7.242188-84.34375-78.09375-151.796875-164.28125-151.796875-90.980469 0-166 75.019531-166 166 0 34.085938 10.226562 66.578125 29.617188 94.320312zm136.382812-199.320312c33.089844 0 60 26.910156 60 60 0 27.90625-19.144531 51.429688-45 58.097656v31.902344h-30v-60h15c16.539062 0 30-13.460938 30-30s-13.460938-30-30-30-30 13.460938-30 30h-30c0-33.089844 26.910156-60 60-60zm0 0"/><path d="m346 181c-90.980469 0-165 74.019531-165 165s74.019531 166 165 166c25.253906 0 50.15625-5.785156 72.671875-16.832031 13.269531 10.796875 29.984375 16.832031 47.328125 16.832031h45.503906l-13.640625-22.71875c-8.746093-14.578125-15.046875-31.054688-16.480469-47.960938 19.390626-27.742187 30.617188-61.234374 30.617188-95.320312 0-90.980469-75.019531-165-166-165zm-45 180h-30v-30h30zm60 0h-30v-30h30zm60 0h-30v-30h30zm0 0"/></svg>